<?xml version="1.0" encoding="UTF-8"?>
<svg width="352px" height="155px" viewBox="0 0 352 155" version="1.1" xmlns="http://www.w3.org/2000/svg" xmlns:xlink="http://www.w3.org/1999/xlink">
    <!-- Generator: Sketch 48.1 (47250) - http://www.bohemiancoding.com/sketch -->
    <title>logo</title>
    <desc>Created with Sketch.</desc>
    <defs></defs>
    <g id="Page-1" stroke="none" stroke-width="1" fill="none" fill-rule="evenodd">
        <g id="logo" fill="#FFFFFF">
            <g id="if_94_171453" transform="translate(133.000000, 0.000000)" fill-rule="nonzero">
                <path d="M98.3397307,56.3639399 C98.3397307,79.5159644 79.3527465,98.299245 55.931187,98.299245 C32.5062932,98.299245 13.5226433,79.5159644 13.5226433,56.3639399 C13.5226433,33.205291 32.5096275,14.4286348 55.931187,14.4286348 C79.3577479,14.4269787 98.3397307,33.2036349 98.3397307,56.3639399 M114,56.3639399 C114,25.2343958 88.4818091,0 57,0 C25.5204316,0 0,25.2343958 0,56.3639399 C0,70.0506559 4.93849873,82.5999655 13.1450557,92.3614053 L57.0492954,155 L101.595495,91.4476963 C103.195353,89.4678078 104.66077,87.3810789 105.982782,85.1875094 L106.433162,84.5486921 L106.359219,84.5486921 C111.210331,76.2529708 114,66.635098 114,56.3639399" id="Shape"></path>
            </g>
            <g id="if_globe-01_186398" transform="translate(154.000000, 22.000000)" fill-rule="nonzero">
                <path d="M71.4253008,34 C71.4253008,34.6788321 71.365084,35.3412409 71.324027,36.0118613 C71.0749482,35.3822993 70.6972243,34.5611314 70.606899,34.2080292 C70.4755168,33.6715328 69.6735378,31.8020073 69.6735378,31.8020073 C69.6735378,31.8020073 68.8715588,30.7344891 68.3378185,30.4662409 C67.8068154,30.1979927 67.4044573,29.5301095 66.468359,28.9990876 C65.5322606,28.4625912 65.1353768,28.1970803 64.336135,28.1970803 C63.5314188,28.1970803 62.7349141,27.1268248 61.7960786,26.5930657 C60.8599803,26.0620438 60.728598,26.3275547 60.728598,26.3275547 C60.728598,26.3275547 61.7960786,27.9288321 61.7960786,28.3284672 C61.7960786,28.7281022 62.9949414,29.3959854 64.2020156,29.1277372 C64.2020156,29.1277372 65.0012575,30.5976277 65.4008784,30.9972628 C65.8004993,31.3968978 65.2667591,31.7992701 64.4675172,32.3330292 C63.6655382,32.8640511 63.7996575,32.7326642 63.3945624,33.1322993 C62.9949414,33.5319343 61.6619593,34.205292 61.2596012,34.4680657 C60.8599803,34.7335766 59.2587594,35.5355839 58.4595175,34.7335766 C58.068108,34.3476277 58.1885417,33.5346715 57.9257773,32.9981752 C57.6575386,32.4644161 54.8547178,28.3257299 53.5189985,26.4589416 C53.2863425,26.1304745 52.7170195,25.1177007 52.3201357,24.8576642 C51.9205148,24.5866788 53.256234,24.5866788 53.256234,24.5866788 C53.256234,24.5866788 53.256234,23.6505474 53.1221147,22.9854015 C52.9852582,22.3175182 53.256234,21.3841241 53.256234,21.3841241 C53.256234,21.3841241 51.9205148,22.1833942 51.5154196,22.4516423 C51.1185358,22.7198905 50.7161777,21.9206204 50.1851745,21.25 C49.6514343,20.584854 49.1149568,19.7801095 48.9835746,19.1122263 C48.8494553,18.4470803 49.6514343,18.1788321 49.6514343,18.1788321 L50.8502971,17.5136861 C50.8502971,17.5136861 52.3201357,17.2481752 53.256234,17.379562 C54.1895953,17.5136861 55.6566968,17.6478102 55.6566968,17.6478102 C55.6566968,17.6478102 56.0563177,16.7116788 55.5225774,16.3120438 C54.9915743,15.9124088 53.7845001,15.2445255 53.2507598,15.3786496 C52.7197566,15.5100365 53.5162614,14.7107664 54.1813839,14.1770073 L52.7033338,13.9087591 C52.7033338,13.9087591 51.3594032,14.5766423 50.9570451,14.7107664 C50.5574242,14.8421533 49.8621932,15.1104015 49.3257158,15.7782847 C48.7947127,16.4461679 49.5392119,17.379562 49.0054717,17.6478102 C48.4744685,17.9160584 48.1131674,18.0474453 47.7108093,18.1788321 C47.3111884,18.3129562 46.0411602,18.1788321 46.0411602,18.1788321 C44.6616469,18.1788321 45.5457397,19.4379562 45.9043037,19.8841241 L44.8368232,18.5812044 L44.0457927,16.7144161 C44.0457927,16.7144161 42.9071467,15.915146 42.3734064,15.649635 C41.8396662,15.3813869 40.1946512,14.4479927 40.1946512,14.4479927 L40.3096107,15.649635 L41.8560889,17.2153285 L41.9929454,17.2509124 L42.7976615,18.3184307 L41.0212644,18.4525547 L41.0212644,17.3959854 C39.346141,16.9908759 39.7840818,16.5748175 39.5952198,16.4461679 C39.198336,16.1806569 38.2704491,15.5100365 38.2704491,15.5100365 C38.2704491,15.5100365 36.6993366,15.7782847 36.2969786,15.9124088 C35.8946205,16.0465328 35.7823982,16.4461679 34.9858935,16.7116788 C34.1811773,16.979927 33.8198762,17.379562 33.5543746,17.7791971 C33.2888731,18.1788321 32.4184658,19.3804745 31.8901998,19.9142336 C31.3537224,20.4507299 30.3628814,20.3138686 29.9632605,20.3138686 C29.5609024,20.3138686 27.6339631,19.7801095 27.6339631,19.7801095 L27.6339631,17.5164234 C27.6339631,17.5164234 27.8939905,16.2463504 27.7626082,15.8467153 L28.9313626,15.649635 L30.8829361,15.2472628 L31.4549962,14.8448905 L32.2761351,13.7773723 C32.2761351,13.7773723 31.3537224,13.1094891 32.0188449,12.1760949 C32.3390891,11.7271898 33.4914207,11.6423358 34.0251609,11.2427007 C34.5561641,10.8430657 35.3636174,10.5748175 35.3636174,10.5748175 C35.3636174,10.5748175 36.2997157,9.77554745 37.2330769,8.83941606 C37.2330769,8.83941606 37.9009366,8.4370438 38.7001784,8.16879562 C38.7001784,8.16879562 40.9719961,10.1724453 41.3743541,10.1724453 C41.7767122,10.1724453 43.2438137,9.23905109 43.2438137,9.23905109 C43.2438137,9.23905109 43.6434346,8.04014599 43.5120524,7.63777372 C43.377933,7.23813869 42.7100734,5.90237226 42.7100734,5.90237226 C42.7100734,5.90237226 42.3104525,6.57025547 41.9108315,7.1040146 C41.5112106,7.63777372 41.2429719,8.30565693 41.2429719,8.30565693 C41.2429719,8.30565693 39.3735123,8.1770073 39.2421301,7.77737226 C39.1052736,7.375 38.8425092,6.71532847 38.7056527,6.31843066 C38.5770076,5.91605839 37.5067899,5.92974453 36.7102852,6.1979927 C35.905569,6.46624088 36.8389302,4.75821168 36.8389302,4.75821168 C36.8389302,4.75821168 37.6436464,3.75091241 38.1746495,3.75091241 C38.7056527,3.75091241 39.9127269,3.06660584 40.4409929,2.93521898 C40.9774703,2.80109489 42.5841654,2.19069343 43.2465508,2.19069343 C43.9144105,2.19069343 44.7163895,2.47810219 45.1187475,2.47810219 C45.5211056,2.47810219 47.1195893,2.47810219 47.1195893,2.47810219 L49.919673,2.25364964 C49.919673,2.25364964 52.3256099,3.14324818 51.5208938,3.67974453 C51.5208938,3.67974453 52.4597293,4.25729927 52.8593502,4.65693431 C53.234337,5.03467153 54.2032809,4.30930657 54.7589182,4 C64.7467044,10.2682482 71.4253008,21.3567518 71.4253008,34 Z M7.72955615,13.1094891 C7.72955615,13.6432482 7.00147966,13.7718978 7.72955615,15.1131387 C8.66018024,16.8485401 7.86093838,17.6505474 7.86093838,17.6505474 C7.86093838,17.6505474 5.58912075,19.2518248 5.18949981,19.520073 C4.78987888,19.7883212 3.72239831,21.2554745 4.38752082,20.8531022 C5.05538046,20.4534672 5.85462232,20.0538321 5.18949981,21.1213504 C4.52164017,22.1916058 3.32004024,23.9242701 3.05453867,24.5948905 C2.78903709,25.2655109 1.45331781,26.8640511 1.45331781,27.6660584 C1.45331781,28.4680657 0.919577519,30.0720803 1.05369687,30.7399635 C1.14402215,31.205292 0.848412148,32.5766423 0.615756126,33.1405109 C0.796406684,25.6350365 3.32277737,18.7180657 7.494163,13.060219 C7.63101948,13.0739051 7.72955615,13.1094891 7.72955615,13.1094891 Z M12.0186384,7.99087591 C15.2840341,4.97718978 19.1105413,2.57390511 23.3311953,0.947992701 C22.9151516,1.48175182 22.4115197,2.02919708 22.4115197,2.02919708 C22.4115197,2.02919708 21.4781585,2.02645985 19.7400812,3.89872263 C18.0074781,5.76824818 18.407099,5.23448905 18.0074781,5.76551095 C17.6078571,6.29653285 17.7392394,6.43339416 16.803141,7.1040146 C15.8725169,7.76916058 15.4701589,8.57116788 15.4701589,8.57116788 L14.0003202,9.10492701 L12.8014574,8.57116788 C12.8014574,8.57116788 11.7285026,8.97354015 11.862622,8.4370438 C11.9009418,8.29470803 11.9584215,8.14689781 12.0186384,7.99087591 Z M28.0198984,11.1058394 L27.4888953,10.3065693 L28.0198984,9.10492701 L29.3063494,9.61952555 L29.3063494,7.23540146 L30.5353206,6.57025547 L31.55627,8.03740876 L33.1273824,9.77554745 L32.084536,10.5748175 L29.3036122,11.1085766 L29.3036122,9.69343066 L28.0198984,11.1058394 Z M45.3787748,23.6560219 C45.6908076,23.4096715 46.711757,24.0556569 46.711757,24.0556569 C46.711757,24.0556569 50.0483181,24.7235401 50.5820583,25.1231752 C51.1185358,25.5255474 52.051897,25.7937956 52.3201357,26.1961679 C52.5883744,26.5958029 53.5189985,27.7974453 53.6503807,28.1970803 C53.7872372,28.5967153 54.4550968,30.0693431 54.5892162,30.600365 C54.7233355,31.1341241 55.1229565,32.4698905 55.5225774,33.1377737 C55.9221983,33.8083942 58.194016,36.7427007 58.9932578,38.0784672 L61.4019319,37.6788321 C61.4019319,37.6788321 61.1309561,38.8777372 60.8654545,39.2801095 C60.599953,39.6797445 59.797974,40.7472628 59.398353,41.2810219 C58.995995,41.814781 58.4649918,42.6167883 57.6630128,43.2819343 C56.8637709,43.9470803 56.8582967,44.6149635 56.4614129,45.1514599 C56.061792,45.685219 55.5253145,46.8868613 55.5253145,46.8868613 C55.5253145,46.8868613 55.7935532,49.5583942 55.9249355,50.0921533 C56.0563177,50.6259124 54.9915743,52.0930657 54.9915743,52.0930657 L53.7872372,53.2974453 L52.1778049,55.4297445 L52.3091872,57.4306569 C52.3091872,57.4306569 51.0939016,58.3695255 50.4233048,58.9005474 C49.7609194,59.4315693 49.8649304,59.8339416 49.3311901,60.370438 C48.8001869,60.9014599 46.711757,61.8375912 46.1780167,61.9717153 C45.6442764,62.1058394 42.6991249,62.5054745 42.6991249,62.5054745 L42.6991249,61.3065693 L42.638908,59.9708029 C42.638908,59.9708029 42.2338128,58.3695255 41.8314548,57.8357664 C41.4290967,57.3020073 41.604273,56.4972628 40.9364134,55.8321168 C40.2685537,55.1642336 40.0222121,54.6332117 39.8880927,54.2281022 C39.7539733,53.8284672 40.0331606,52.629562 40.0331606,52.629562 C40.0331606,52.629562 40.5723751,51.1596715 40.8378767,50.6259124 C41.1061154,50.0921533 40.8406138,49.2928832 40.5723751,48.7563869 C40.3041364,48.2198905 40.1754913,46.8841241 40.1754913,46.4872263 C40.1754913,46.0875912 39.1025365,45.4169708 38.7029156,45.0173358 C38.3032946,44.6177007 38.437414,44.0812044 38.437414,43.5529197 C38.437414,43.0136861 38.037793,41.814781 38.1691753,40.8786496 C38.3032946,39.9452555 36.9703125,40.6104015 36.1683335,40.8786496 C35.3663545,41.1468978 34.8353513,40.6104015 34.8353513,39.8083942 C34.8353513,39.0063869 33.3682498,39.6770073 32.4321515,40.2080292 C31.493316,40.7417883 30.4285725,40.7417883 29.3556177,41.1441606 C28.2908743,41.5437956 27.7598711,40.7445255 27.7598711,40.7445255 C27.7598711,40.7445255 26.8210356,39.9452555 26.1586503,39.5428832 C25.4880535,39.1432482 24.8201938,38.3439781 24.2837164,37.6760949 C23.7527133,37.0054745 22.4142569,35.0018248 22.2856118,34.205292 C22.1514924,33.4005474 22.2856118,32.8640511 22.2856118,31.9306569 C22.2856118,30.9972628 22.2856118,30.4635036 22.416994,29.7956204 C22.5511133,29.1277372 22.9507343,28.3257299 23.3530923,27.6578467 C23.7527133,26.9899635 25.2225519,26.1906934 25.6194357,25.9224453 C26.0190566,25.6569343 26.955155,24.8576642 26.955155,24.3211679 C26.955155,23.7874088 27.4916324,23.5218978 27.7543969,22.9854015 C28.0253727,22.4516423 28.9587339,21.1186131 30.1603338,21.6523723 C30.1603338,21.6523723 31.2250773,21.5209854 31.6246982,21.3868613 C32.0243191,21.2527372 33.0917997,20.8558394 33.6200657,20.5875912 C34.153806,20.3193431 35.4840511,20.1934307 35.4840511,20.1934307 C35.4840511,20.1934307 36.5351089,20.6122263 36.9347298,20.6122263 C37.3343507,20.6122263 38.6372244,20.379562 38.6372244,20.379562 C38.6372244,20.379562 39.239393,22.314781 39.239393,22.7171533 C39.239393,23.1195255 39.6390139,23.5164234 40.3096107,23.7846715 C40.9692589,24.0556569 44.0430556,24.7262774 45.3787748,23.6560219 Z M60.7313352,49.8266423 C60.7313352,50.2262774 60.5972158,51.2965328 60.4630965,51.830292 C60.3235029,52.3640511 60.0607384,53.3001825 59.9293562,53.8284672 C59.7952368,54.3649635 59.1273772,55.4324818 58.7304934,55.7007299 C58.3308725,55.9689781 57.6602757,56.7709854 57.2633919,56.9023723 C56.8637709,57.0364964 56.5927951,55.9662409 56.7269145,55.4324818 C56.8637709,54.8987226 57.5288935,53.4315693 57.5288935,53.4315693 C57.5288935,53.4315693 57.6630128,52.6322993 57.794395,52.0958029 C57.9312515,51.564781 59.5324724,50.8968978 59.5324724,50.8968978 L60.6026901,48.8932482 C60.5972158,48.8905109 60.7313352,49.4297445 60.7313352,49.8266423 Z M1.48616336,41.8722628 C1.65860253,41.9160584 1.9049442,42.0419708 2.25255967,42.3512774 C2.75619153,42.7892336 3.05453867,43.0136861 3.72239831,43.2846715 C4.38752082,43.5556569 4.65575953,43.9498175 5.45773852,44.3521898 C6.25971752,44.754562 5.99421594,44.4890511 7.05895938,45.6879562 C8.12917708,46.8868613 7.99505773,46.8868613 8.26055931,47.5574818 C8.52606089,48.2281022 8.92841895,48.8905109 9.19665766,49.2956204 C9.46489637,49.6952555 10.2641382,49.9607664 10.6637592,50.2290146 C11.0633801,50.4972628 11.7312397,50.7627737 12.1308607,50.7627737 C12.5332187,50.7627737 13.7348187,51.9644161 14.4026783,52.0958029 C15.0705379,52.2326642 15.0705379,53.5684307 15.0705379,53.5684307 L14.4026783,55.435219 L13.8662009,57.4361314 L14.4026783,59.0374088 C14.4026783,59.0374088 13.5979622,59.7080292 13.0696961,59.7080292 C12.5770128,59.7080292 12.4100479,60.020073 11.8708333,59.8722628 C6.77977215,55.1177007 3.08738422,48.8987226 1.48616336,41.8722628 Z" id="Shape"></path>
            </g>
            <path d="M0.174509562,11.3 L15.8887953,11.3 L56.8691874,105.123529 L57.3313723,105.123529 L98.1577028,11.3 L113.871989,11.3 L113.871989,121.3 L101.238935,121.3 L101.238935,33.7929972 L100.77675,33.7929972 L62.7235292,121.3 L51.3229689,121.3 L13.2697477,33.7929972 L12.8075628,33.7929972 L12.8075628,121.3 L0.174509562,121.3 L0.174509562,11.3 Z M264.17451,10.3 L313.320168,10.3 C323.488235,10.3 331.653501,12.764986 337.661905,17.694958 C343.516246,22.62493 346.443417,29.4036415 346.443417,38.0310924 C346.443417,44.1935574 344.748739,49.5857143 341.513445,54.0535014 C338.124089,58.0591036 333.656302,60.9862745 328.110084,62.835014 C335.35098,64.067507 340.897199,67.1487395 344.902801,71.7705882 C348.908403,76.392437 351.065266,82.2467787 351.065266,89.6417367 C351.065266,100.42605 347.213725,108.437255 339.664706,113.67535 C333.194117,117.989076 324.258543,120.3 313.012045,120.3 L264.17451,120.3 L264.17451,10.3 Z M277.17451,21.3 L277.17451,58.7369748 L310.605882,58.7369748 C318.308963,58.7369748 324.163305,57.0422969 328.168907,53.9610644 C332.17451,50.7257703 334.331372,45.9498599 334.331372,39.6333333 C334.331372,33.4708683 332.328571,28.8490196 328.322969,25.7677871 C324.317367,22.6865546 318.463025,21.3 310.759944,21.3 L277.17451,21.3 Z M277.17451,69.3 L277.17451,110.126331 L312.30056,110.126331 C320.003641,110.126331 326.012045,108.585714 330.633893,105.812605 C336.02605,102.423249 338.799159,97.0310924 338.799159,89.9442577 C338.799159,82.857423 336.334173,77.6193277 331.712325,74.229972 C327.244538,70.8406162 320.773949,69.3 312.30056,69.3 L277.17451,69.3 Z" id="MB"></path>
        </g>
    </g>
</svg>