<?xml version="1.0" encoding="UTF-8"?>
<svg width="30px" height="42px" viewBox="0 0 30 42" version="1.1" xmlns="http://www.w3.org/2000/svg" xmlns:xlink="http://www.w3.org/1999/xlink">
    <!-- Generator: Sketch 48.1 (47250) - http://www.bohemiancoding.com/sketch -->
    <title>pinicon</title>
    <desc>Created with Sketch.</desc>
    <defs></defs>
    <g id="Page-1" stroke="none" stroke-width="1" fill="none" fill-rule="evenodd">
        <g id="pinicon" fill-rule="nonzero">
            <path d="M30,15.0974839 C30,6.75921315 23.2846866,0 15,0 C6.71590306,0 0,6.75921315 0,15.0974839 C0,18.7635685 1.29960493,22.1249908 3.45922519,24.7396621 L15.0129725,41.5178571 L26.7356566,24.4949186 C27.156672,23.9645914 27.5423079,23.4056461 27.8902058,22.8180829 L28.0087269,22.6469711 L27.9892682,22.6469711 C29.2658765,20.4249029 30,17.848687 30,15.0974839" id="Shape" fill="#000000"></path>
            <g id="if_icon-camera_211634" transform="translate(5.892857, 7.767857)" fill="#FFFFFF">
                <path d="M16.0044643,2.13448661 L13.1794085,2.13448661 L11.4885603,0.426897321 C11.4885603,0.426897321 11.4801897,0.418526786 11.4760045,0.418526786 L11.4676339,0.41015625 C11.2165179,0.159040179 10.8775112,0 10.4924665,0 L6.97684152,0 C6.56668527,0 6.20256696,0.17578125 5.94726563,0.456194196 L5.94726563,0.460379464 L4.29408482,2.13448661 L1.40625,2.13448661 C0.627790179,2.13448661 0,2.74553571 0,3.52399554 L0,11.9824219 C0,12.7608817 0.627790179,13.3928571 1.40625,13.3928571 L16.0044643,13.3928571 C16.7787388,13.3928571 17.4107143,12.7608817 17.4107143,11.9824219 L17.4107143,3.52399554 C17.4107143,2.74553571 16.7787388,2.13448661 16.0044643,2.13448661 Z M8.70535714,11.2792969 C6.5750558,11.2792969 4.83816964,9.53822545 4.83816964,7.40373884 C4.83816964,5.26506696 6.5750558,3.5281808 8.70535714,3.5281808 C10.8398437,3.5281808 12.5725446,5.26506696 12.5725446,7.40373884 C12.5725446,9.53822545 10.8398437,11.2792969 8.70535714,11.2792969 Z M15.7407924,4.37360491 C15.4185268,4.37360491 15.1548549,4.10993304 15.1548549,3.78348214 C15.1548549,3.45703125 15.4185268,3.19335938 15.7407924,3.19335938 C16.063058,3.19335938 16.3267299,3.45703125 16.3267299,3.78348214 C16.3267299,4.10993304 16.063058,4.37360491 15.7407924,4.37360491 Z" id="Shape"></path>
                <path d="M8.70535714,4.28571429 C7.00189316,4.28571429 5.625,5.66307398 5.625,7.36607143 C5.625,9.06466837 7.00189316,10.4464286 8.70535714,10.4464286 C10.404408,10.4464286 11.7857143,9.06906888 11.7857143,7.36607143 C11.7857143,5.66307398 10.404408,4.28571429 8.70535714,4.28571429 Z" id="Shape" transform="translate(8.705357, 7.366071) rotate(1.000000) translate(-8.705357, -7.366071) "></path>
            </g>
        </g>
    </g>
</svg>